<svg width="22" height="22" viewBox="0 0 22 22" fill="none" xmlns="http://www.w3.org/2000/svg">
<path d="M2 16.3607C2 14.9781 2 14.2868 2.3112 13.7789C2.48534 13.4948 2.72425 13.2558 3.00842 13.0817C3.51625 12.7705 4.20756 12.7705 5.59016 12.7705C6.97277 12.7705 7.66407 12.7705 8.17191 13.0817C8.45607 13.2558 8.69499 13.4948 8.86912 13.7789C9.18033 14.2868 9.18033 14.9781 9.18033 16.3607C9.18033 17.7433 9.18033 18.4346 8.86912 18.9424C8.69499 19.2266 8.45607 19.4655 8.17191 19.6396C7.66407 19.9508 6.97277 19.9508 5.59016 19.9508C4.20756 19.9508 3.51625 19.9508 3.00842 19.6396C2.72425 19.4655 2.48534 19.2266 2.3112 18.9424C2 18.4346 2 17.7433 2 16.3607Z" stroke="#F5F5F5" stroke-width="2.5"/>
<path d="M12.7705 16.3607C12.7705 14.9781 12.7705 14.2868 13.0817 13.7789C13.2558 13.4948 13.4948 13.2558 13.7789 13.0817C14.2868 12.7705 14.9781 12.7705 16.3607 12.7705C17.7433 12.7705 18.4346 12.7705 18.9424 13.0817C19.2266 13.2558 19.4655 13.4948 19.6396 13.7789C19.9508 14.2868 19.9508 14.9781 19.9508 16.3607C19.9508 17.7433 19.9508 18.4346 19.6396 18.9424C19.4655 19.2266 19.2266 19.4655 18.9424 19.6396C18.4346 19.9508 17.7433 19.9508 16.3607 19.9508C14.9781 19.9508 14.2868 19.9508 13.7789 19.6396C13.4948 19.4655 13.2558 19.2266 13.0817 18.9424C12.7705 18.4346 12.7705 17.7433 12.7705 16.3607Z" stroke="#F5F5F5" stroke-width="2.5"/>
<path d="M2 5.59016C2 4.20756 2 3.51625 2.3112 3.00842C2.48534 2.72425 2.72425 2.48534 3.00842 2.3112C3.51625 2 4.20756 2 5.59016 2C6.97277 2 7.66407 2 8.17191 2.3112C8.45607 2.48534 8.69499 2.72425 8.86912 3.00842C9.18033 3.51625 9.18033 4.20756 9.18033 5.59016C9.18033 6.97277 9.18033 7.66407 8.86912 8.17191C8.69499 8.45607 8.45607 8.69499 8.17191 8.86912C7.66407 9.18033 6.97277 9.18033 5.59016 9.18033C4.20756 9.18033 3.51625 9.18033 3.00842 8.86912C2.72425 8.69499 2.48534 8.45607 2.3112 8.17191C2 7.66407 2 6.97277 2 5.59016Z" stroke="#F5F5F5" stroke-width="2.5"/>
<path d="M12.7705 5.59016C12.7705 4.20756 12.7705 3.51625 13.0817 3.00842C13.2558 2.72425 13.4948 2.48534 13.7789 2.3112C14.2868 2 14.9781 2 16.3607 2C17.7433 2 18.4346 2 18.9424 2.3112C19.2266 2.48534 19.4655 2.72425 19.6396 3.00842C19.9508 3.51625 19.9508 4.20756 19.9508 5.59016C19.9508 6.97277 19.9508 7.66407 19.6396 8.17191C19.4655 8.45607 19.2266 8.69499 18.9424 8.86912C18.4346 9.18033 17.7433 9.18033 16.3607 9.18033C14.9781 9.18033 14.2868 9.18033 13.7789 8.86912C13.4948 8.69499 13.2558 8.45607 13.0817 8.17191C12.7705 7.66407 12.7705 6.97277 12.7705 5.59016Z" stroke="#F5F5F5" stroke-width="2.5"/>
</svg>
